<svg xmlns="http://www.w3.org/2000/svg" width="24" height="24" viewBox="0 0 24 24" fill="none">
  <path fill-rule="evenodd" clip-rule="evenodd" d="M7 3.5a.5.5 0 0 1 .5.5v1.55A8 8 0 0 1 20 11.5a.5.5 0 0 1-1 0 7 7 0 0 0-11.06-5.71l1.77 1.77a.5.5 0 0 1-.35.85H5.5a.5.5 0 0 1-.5-.5V4.06a.5.5 0 0 1 .85-.35L7 5.03V4a.5.5 0 0 1 .5-.5ZM4.5 12a.5.5 0 0 1 .5.5 7 7 0 0 0 11.06 5.71l-1.77-1.77a.5.5 0 0 1 .35-.85h3.86a.5.5 0 0 1 .5.5v3.86a.5.5 0 0 1-.85.35L16.6 18.9A8 8 0 0 1 4 12.5a.5.5 0 0 1 .5-.5Z" fill="#C5C5C5"/>
</svg>
